<svg width="200" height="200" viewBox="0 0 200 200" fill="none" xmlns="http://www.w3.org/2000/svg">
<path d="M27.001 170.207C27.001 173.283 29.495 175.774 32.57 175.774H167.882C170.962 175.774 173.456 173.283 173.456 170.207V80.7791C173.456 77.7031 170.962 75.208 167.882 75.208H32.57C29.495 75.208 27.001 77.7031 27.001 80.7791V170.207Z" fill="#433DB3"/>
<path d="M32.546 175.774H167.909C170.975 175.761 173.456 173.272 173.456 170.207V144.19C153.382 140.19 127.925 137.801 100.227 137.801C72.532 137.801 47.075 140.19 27 144.19V170.207C27.001 173.272 29.479 175.762 32.546 175.774Z" fill="url(#paint0_linear_2866_630)"/>
<path d="M27.001 108.995V93.135H173.456V108.995H27.001Z" fill="#35308D"/>
<path d="M56.132 30.2449V118.349C56.132 121.427 58.13 124.701 60.593 125.659L168.993 174.377C171.456 175.335 173.456 173.62 173.456 170.544V81.117C173.456 78.035 172.272 75.35 168.993 73.805L63.679 25.2791C60.193 24.1901 56.132 26.3799 56.132 30.2449Z" fill="url(#paint1_linear_2866_630)"/>
<path d="M96.368 83.9789C96.368 94.7509 105.1 105.126 115.868 107.166C126.634 109.201 135.366 102.117 135.366 91.3488C135.366 80.5808 126.634 70.2058 115.868 68.1708C105.101 66.1348 96.368 73.2129 96.368 83.9789ZM85.905 82.0749C85.905 65.5259 99.321 54.6429 115.868 57.7719C132.417 60.8999 145.835 76.8478 145.835 93.3998C145.61 115.557 124.245 139.619 115.868 138.034C108.022 136.549 86.087 104.512 85.905 82.3549V82.0749Z" fill="#18D5F5"/>
<defs>
<linearGradient id="paint0_linear_2866_630" x1="26.9993" y1="156.787" x2="173.455" y2="156.787" gradientUnits="userSpaceOnUse">
<stop stop-color="#2C3CC9"/>
<stop offset="0.6784" stop-color="#9068FC"/>
<stop offset="1" stop-color="#9068FC"/>
</linearGradient>
<linearGradient id="paint1_linear_2866_630" x1="51.7771" y1="43.1347" x2="177.873" y2="156.322" gradientUnits="userSpaceOnUse">
<stop stop-color="#9068FC"/>
<stop offset="0.2902" stop-color="#9068FC"/>
<stop offset="0.8902" stop-color="#2C3CC9"/>
<stop offset="1" stop-color="#2C3CC9"/>
</linearGradient>
</defs>
</svg>
